<svg width="656" height="661" viewBox="0 0 656 661" fill="none" xmlns="http://www.w3.org/2000/svg">
<path opacity="0.4" d="M328.353 660.412C509.307 660.412 656 551.26 656 416.613C656 281.966 509.307 172.813 328.353 172.813C147.399 172.813 0.706055 281.966 0.706055 416.613C0.706055 551.26 147.399 660.412 328.353 660.412Z" fill="#1B385C" fill-opacity="0.5"/>
<path d="M328.5 591C458.011 591 563 512.874 563 416.5C563 320.127 458.011 242 328.5 242C198.989 242 94 320.127 94 416.5C94 512.874 198.989 591 328.5 591Z" fill="#1B385C"/>
<path opacity="0.1" d="M380.71 531.095C379.036 531.095 377.619 530.709 376.46 530.065L354.956 517.703L334.739 529.293C333.58 529.936 332.163 530.323 330.489 530.323C328.815 530.323 327.399 529.936 326.24 529.293L312.719 521.438C310.916 520.407 310.53 519.12 310.53 518.218C310.53 517.317 310.916 516.029 312.59 514.999L331.52 504.053L311.303 492.335C309.5 491.305 309.242 490.017 309.242 489.116C309.242 488.215 309.628 486.927 311.303 485.897L328.171 476.11C329.33 475.466 330.747 475.08 332.421 475.08C334.095 475.08 335.511 475.466 336.67 476.11L358.175 488.472L378.263 476.883C379.422 476.239 380.839 475.853 382.513 475.853C384.187 475.853 385.603 476.239 386.762 476.883L400.283 484.738C402.086 485.768 402.343 487.056 402.343 487.957C402.343 488.859 401.957 490.146 400.283 491.176L381.483 501.993L401.7 513.711C403.502 514.741 403.76 516.029 403.76 516.931C403.76 517.832 403.374 519.12 401.7 520.15L384.831 529.936C383.8 530.709 382.384 531.095 380.71 531.095Z" fill="black"/>
<path opacity="0.1" d="M431.704 470.831C430.03 470.831 428.613 470.444 427.454 469.8L413.933 461.945C412.13 460.915 411.744 459.628 411.744 458.726C411.744 457.825 412.13 456.537 413.804 455.507L479.478 417.648C480.636 417.004 482.053 416.618 483.727 416.618C485.401 416.618 486.817 417.004 487.976 417.648L501.497 425.503C503.3 426.534 503.558 427.821 503.558 428.723C503.558 429.624 503.171 430.912 501.369 431.942L435.695 469.8C434.794 470.444 433.378 470.831 431.704 470.831Z" fill="black"/>
<path opacity="0.1" d="M233.526 491.306L145.318 440.313C142.227 438.51 142.227 435.677 145.318 433.874L322.506 331.502C325.597 329.699 330.619 329.699 333.709 331.502L421.917 382.495C425.008 384.298 425.008 387.13 421.917 388.933L244.6 491.306C241.51 493.109 236.616 493.109 233.526 491.306Z" fill="black"/>
<path d="M425.651 20.262C425.651 16.7852 424.363 14.2098 422.432 13.0508C420.371 11.8919 403.503 1.97655 401.442 0.817611C399.382 -0.341326 396.678 -0.083784 393.587 1.59024L224.125 99.456C217.944 103.062 212.922 111.689 212.922 118.772V467.998C212.922 471.603 214.21 474.05 216.141 475.209C218.201 476.368 235.07 486.154 237.002 487.313C239.062 488.472 241.895 488.344 244.986 486.541L414.448 388.675C420.629 385.069 425.651 376.442 425.651 369.359V20.262Z" fill="#37474F"/>
<path d="M233.783 480.231V131.005C233.783 123.923 238.805 115.295 244.986 111.69L414.448 13.8238C420.629 10.2182 425.651 13.1799 425.651 20.2623V369.488C425.651 376.571 420.629 385.199 414.448 388.804L244.986 486.67C238.805 490.147 233.783 487.314 233.783 480.231Z" fill="#37474F"/>
<path d="M278.337 416.361C277.951 416.104 277.436 416.104 276.921 416.49L252.068 430.912C250.652 431.685 249.493 434.518 249.493 436.964V461.302C249.493 462.847 250.008 464.006 250.652 464.521C251.038 464.779 255.159 467.097 255.931 467.483C256.318 467.741 256.833 467.741 257.348 467.354L282.2 452.932C283.617 452.159 284.776 449.326 284.776 446.88V422.542C284.776 420.868 284.261 419.709 283.617 419.323C283.231 419.194 279.11 416.747 278.337 416.361Z" fill="#53A0FD"/>
<path opacity="0.25" d="M256.06 467.483C255.931 467.483 255.931 467.483 256.06 467.483C255.287 467.097 251.167 464.65 250.781 464.393C250.137 464.006 249.622 462.847 249.622 461.173V436.836C249.622 435.548 249.879 434.132 250.523 432.973L255.803 435.934C255.287 437.093 255.03 438.381 255.03 439.798V464.135C254.772 465.938 255.287 467.097 256.06 467.483Z" fill="black"/>
<path opacity="0.5" d="M283.617 419.323C283.231 419.065 282.716 419.194 282.33 419.451L257.477 433.874C256.833 434.26 256.189 435.033 255.674 436.063L250.395 433.101C250.91 432.071 251.425 431.298 252.197 430.912L277.05 416.49C277.565 416.232 278.08 416.232 278.467 416.361C279.11 416.747 283.102 419.065 283.617 419.323Z" fill="white"/>
<path d="M282.201 453.06L257.348 467.483C255.931 468.255 254.772 466.968 254.772 464.392V440.055C254.772 437.479 255.931 434.775 257.348 434.002L282.201 419.58C283.617 418.807 284.776 420.095 284.776 422.671V447.008C284.776 449.455 283.617 452.159 282.201 453.06Z" fill="#53A0FD"/>
<path d="M367.318 365.11C366.932 364.853 366.417 364.853 365.902 365.239L341.049 379.661C339.633 380.434 338.474 383.267 338.474 385.713V410.051C338.474 411.596 338.989 412.755 339.633 413.27C340.019 413.528 344.14 415.846 344.912 416.232C345.298 416.49 345.814 416.49 346.329 416.103L371.181 401.681C372.598 400.908 373.757 398.075 373.757 395.629V371.291C373.757 369.617 373.242 368.458 372.598 368.072C372.083 367.814 367.962 365.496 367.318 365.11Z" fill="#53A0FD"/>
<path opacity="0.25" d="M344.912 416.232C344.139 415.846 340.018 413.399 339.632 413.142C338.988 412.755 338.473 411.596 338.473 409.922V385.585C338.473 384.297 338.731 382.881 339.375 381.722L344.654 384.683C344.139 385.842 343.882 387.13 343.882 388.547V412.884C343.624 414.687 344.139 415.846 344.912 416.232Z" fill="black"/>
<path opacity="0.5" d="M372.469 368.072C372.083 367.814 371.568 367.943 371.181 368.2L346.328 382.623C345.685 383.009 345.041 383.782 344.526 384.812L339.246 381.85C339.761 380.82 340.276 380.047 341.049 379.661L365.902 365.239C366.417 364.981 366.932 364.981 367.318 365.11C367.962 365.496 371.954 367.814 372.469 368.072Z" fill="white"/>
<path d="M371.181 401.681L346.328 416.103C344.912 416.876 343.753 415.588 343.753 413.012V388.675C343.753 386.099 344.912 383.395 346.328 382.623L371.181 368.2C372.598 367.428 373.756 368.715 373.756 371.291V395.628C373.756 398.204 372.598 400.908 371.181 401.681Z" fill="#53A0FD"/>
<path d="M411.744 339.356C411.358 339.099 410.843 339.099 410.328 339.485L385.475 353.907C384.058 354.68 382.899 357.513 382.899 359.96V384.297C382.899 385.842 383.414 387.001 384.058 387.516C384.445 387.774 388.565 390.092 389.338 390.478C389.724 390.736 390.239 390.736 390.754 390.349L415.607 375.927C417.024 375.155 418.183 372.322 418.183 369.875V345.537C418.183 343.863 417.668 342.704 417.024 342.318C416.637 342.189 412.517 339.743 411.744 339.356Z" fill="#53A0FD"/>
<path opacity="0.25" d="M389.337 390.477C388.565 390.091 384.444 387.644 384.058 387.387C383.414 387.001 382.899 385.842 382.899 384.168V359.83C382.899 358.542 383.156 357.126 383.8 355.967L389.08 358.929C388.565 360.087 388.307 361.375 388.307 362.792V387.129C388.179 388.932 388.565 390.091 389.337 390.477Z" fill="black"/>
<path opacity="0.5" d="M416.895 342.318C416.508 342.06 415.993 342.189 415.607 342.447L390.754 356.869C390.11 357.255 389.467 358.028 388.951 359.058L383.672 356.096C384.187 355.066 384.702 354.293 385.475 353.907L410.327 339.485C410.842 339.227 411.358 339.227 411.744 339.356C412.516 339.742 416.38 342.06 416.895 342.318Z" fill="white"/>
<path d="M415.607 376.056L390.754 390.478C389.338 391.251 388.179 389.963 388.179 387.387V363.05C388.179 360.474 389.338 357.77 390.754 356.998L415.607 342.575C417.023 341.803 418.182 343.09 418.182 345.666V370.003C418.182 372.45 417.023 375.154 415.607 376.056Z" fill="#53A0FD"/>
<path d="M411.744 287.976C411.358 287.719 410.843 287.719 410.328 288.105L385.475 302.399C384.058 303.171 382.899 306.004 382.899 308.451V332.789C382.899 334.334 383.414 335.493 384.058 336.008C384.445 336.265 388.565 338.583 389.338 338.97C389.724 339.227 390.239 339.227 390.754 338.841L415.607 324.418C417.024 323.646 418.183 320.813 418.183 318.366V294.029C418.183 292.355 417.668 291.196 417.024 290.809C416.637 290.809 412.517 288.363 411.744 287.976Z" fill="#53A0FD"/>
<path opacity="0.25" d="M389.337 339.098C388.565 338.712 384.444 336.265 384.058 336.008C383.414 335.622 382.899 334.463 382.899 332.789V308.451C382.899 307.163 383.156 305.747 383.8 304.588L389.08 307.55C388.565 308.709 388.307 309.996 388.307 311.413V335.75C388.179 337.553 388.565 338.712 389.337 339.098Z" fill="black"/>
<path opacity="0.5" d="M416.895 290.938C416.508 290.68 415.993 290.809 415.607 291.067L390.754 305.489C390.11 305.875 389.467 306.648 388.951 307.678L383.672 304.716C384.187 303.686 384.702 302.914 385.475 302.527L410.327 288.105C410.842 287.847 411.358 287.847 411.744 287.976C412.516 288.363 416.38 290.68 416.895 290.938Z" fill="white"/>
<path d="M415.607 324.676L390.754 339.098C389.338 339.871 388.179 338.583 388.179 336.008V311.67C388.179 309.094 389.338 306.39 390.754 305.618L415.607 291.195C417.023 290.423 418.182 291.71 418.182 294.286V318.624C418.182 321.07 417.023 323.774 415.607 324.676Z" fill="#53A0FD"/>
<path d="M411.744 236.596C411.358 236.339 410.843 236.339 410.328 236.725L385.475 251.019C384.058 251.791 382.899 254.624 382.899 257.071V281.409C382.899 282.954 383.414 284.113 384.058 284.628C384.445 284.885 388.565 287.203 389.338 287.59C389.724 287.847 390.239 287.847 390.754 287.461L415.607 273.039C417.024 272.266 418.183 269.433 418.183 266.986V242.649C418.183 240.975 417.668 239.816 417.024 239.429C416.637 239.429 412.517 236.983 411.744 236.596Z" fill="#53A0FD"/>
<path opacity="0.25" d="M389.337 287.719C388.565 287.332 384.444 284.886 384.058 284.628C383.414 284.242 382.899 283.083 382.899 281.409V257.071C382.899 255.783 383.156 254.367 383.8 253.208L389.08 256.17C388.565 257.329 388.307 258.616 388.307 260.033V284.371C388.179 286.173 388.565 287.332 389.337 287.719Z" fill="black"/>
<path opacity="0.5" d="M416.895 239.559C416.508 239.301 415.993 239.43 415.607 239.688L390.754 254.11C390.11 254.496 389.467 255.269 388.951 256.299L383.672 253.337C384.187 252.307 384.702 251.535 385.475 251.148L410.327 236.726C410.842 236.469 411.358 236.469 411.744 236.597C412.516 236.984 416.38 239.301 416.895 239.559Z" fill="white"/>
<path d="M415.607 273.297L390.754 287.719C389.338 288.492 388.179 287.204 388.179 284.629V260.291C388.179 257.716 389.338 255.011 390.754 254.239L415.607 239.816C417.023 239.044 418.182 240.332 418.182 242.907V267.245C418.182 269.691 417.023 272.395 415.607 273.297Z" fill="#53A0FD"/>
<path d="M411.744 185.218C411.358 184.96 410.843 184.96 410.328 185.346L385.475 199.64C384.058 200.413 382.899 203.245 382.899 205.692V230.03C382.899 231.575 383.414 232.734 384.058 233.249C384.445 233.507 388.565 235.824 389.338 236.211C389.724 236.468 390.239 236.468 390.754 236.082L415.607 221.66C417.024 220.887 418.183 218.054 418.183 215.607V191.27C418.183 189.596 417.668 188.437 417.024 188.051C416.637 188.051 412.517 185.604 411.744 185.218Z" fill="#53A0FD"/>
<path opacity="0.25" d="M389.337 236.339C388.565 235.952 384.444 233.506 384.058 233.248C383.414 232.862 382.899 231.703 382.899 230.029V205.691C382.899 204.404 383.156 202.987 383.8 201.828L389.08 204.79C388.565 205.949 388.307 207.365 388.307 208.653V232.991C388.179 234.793 388.565 235.952 389.337 236.339Z" fill="black"/>
<path opacity="0.5" d="M416.895 188.179C416.508 187.922 415.993 188.05 415.607 188.308L390.754 202.73C390.11 203.117 389.467 203.889 388.951 204.919L383.672 201.958C384.187 200.927 384.702 200.155 385.475 199.768L410.327 185.346C410.842 185.089 411.358 185.089 411.744 185.217C412.516 185.604 416.38 187.922 416.895 188.179Z" fill="white"/>
<path d="M415.607 221.788L390.754 236.21C389.338 236.983 388.179 235.695 388.179 233.12V208.782C388.179 206.207 389.338 203.503 390.754 202.73L415.607 188.308C417.023 187.535 418.182 188.823 418.182 191.398V215.736C418.182 218.311 417.023 221.015 415.607 221.788Z" fill="#53A0FD"/>
<path d="M411.744 133.838C411.358 133.58 410.843 133.58 410.328 133.966L385.475 148.26C384.058 149.033 382.899 151.866 382.899 154.312V178.65C382.899 180.195 383.414 181.354 384.058 181.869C384.445 182.127 388.565 184.445 389.338 184.831C389.724 185.088 390.239 185.088 390.754 184.702L415.607 170.28C417.024 169.507 418.183 166.674 418.183 164.228V139.89C418.183 138.216 417.668 137.057 417.024 136.671C416.637 136.542 412.517 134.224 411.744 133.838Z" fill="#53A0FD"/>
<path opacity="0.25" d="M389.337 184.96C388.565 184.573 384.444 182.127 384.058 181.869C383.414 181.483 382.899 180.324 382.899 178.65V154.312C382.899 153.025 383.156 151.608 383.8 150.449L389.08 153.411C388.565 154.57 388.307 155.858 388.307 157.274V181.612C388.179 183.415 388.565 184.573 389.337 184.96Z" fill="black"/>
<path opacity="0.5" d="M416.895 136.799C416.508 136.542 415.993 136.67 415.607 136.928L390.754 151.35C390.11 151.737 389.467 152.509 388.951 153.539L383.672 150.578C384.187 149.548 384.702 148.775 385.475 148.389L410.327 133.966C410.842 133.709 411.358 133.709 411.744 133.838C412.516 134.224 416.38 136.542 416.895 136.799Z" fill="white"/>
<path d="M415.607 170.408L390.754 184.83C389.338 185.603 388.179 184.315 388.179 181.74V157.402C388.179 154.827 389.338 152.123 390.754 151.35L415.607 136.928C417.023 136.155 418.182 137.443 418.182 140.018V164.356C418.182 166.931 417.023 169.636 415.607 170.408Z" fill="#53A0FD"/>
<path d="M367.318 159.463C366.932 159.205 366.417 159.205 365.902 159.591L341.049 174.014C339.633 174.786 338.474 177.619 338.474 180.066V204.404C338.474 205.949 338.989 207.108 339.633 207.623C340.019 207.88 344.14 210.198 344.912 210.585C345.298 210.842 345.814 210.842 346.329 210.456L371.181 196.034C372.598 195.261 373.757 192.428 373.757 189.981V165.644C373.757 163.97 373.242 162.811 372.598 162.424C372.083 162.296 367.962 159.849 367.318 159.463Z" fill="#1773CE"/>
<path opacity="0.25" d="M344.912 210.585C344.139 210.199 340.018 207.752 339.632 207.494C338.988 207.108 338.473 205.949 338.473 204.275V180.066C338.473 178.779 338.731 177.362 339.375 176.203L344.654 179.165C344.139 180.324 343.882 181.611 343.882 183.028V207.366C343.624 209.04 344.139 210.199 344.912 210.585Z" fill="black"/>
<path opacity="0.5" d="M372.469 162.425C372.083 162.168 371.568 162.296 371.181 162.554L346.328 176.976C345.685 177.363 345.041 178.135 344.526 179.165L339.246 176.204C339.761 175.174 340.276 174.401 341.049 174.015L365.902 159.592C366.417 159.335 366.932 159.335 367.318 159.463C367.962 159.85 371.954 162.168 372.469 162.425Z" fill="white"/>
<path d="M371.181 196.163L346.328 210.585C344.912 211.358 343.753 210.07 343.753 207.495V183.157C343.753 180.582 344.912 177.878 346.328 177.105L371.181 162.683C372.598 161.91 373.756 163.198 373.756 165.773V190.111C373.756 192.557 372.598 195.262 371.181 196.163Z" fill="#1773CE"/>
<path d="M322.892 185.089C322.506 184.831 321.991 184.831 321.476 185.217L296.623 199.64C295.207 200.412 294.048 203.245 294.048 205.692V230.03C294.048 231.575 294.563 232.734 295.207 233.249C295.593 233.506 299.714 235.824 300.486 236.211C300.873 236.468 301.388 236.468 301.903 236.082L326.756 221.66C328.172 220.887 329.331 218.054 329.331 215.607V191.27C329.331 189.596 328.816 188.437 328.172 188.05C327.657 187.922 323.536 185.604 322.892 185.089Z" fill="#06722C"/>
<path opacity="0.25" d="M300.486 236.211C300.486 236.211 300.358 236.211 300.486 236.211C299.714 235.824 295.593 233.378 295.207 233.12C294.563 232.734 294.048 231.575 294.048 229.901V205.563C294.048 204.276 294.305 202.859 294.949 201.7L300.229 204.662C299.714 205.821 299.456 207.109 299.456 208.525V232.863C299.199 234.665 299.714 235.824 300.486 236.211Z" fill="black"/>
<path opacity="0.5" d="M328.043 188.179C327.657 187.921 327.142 188.05 326.755 188.308L301.774 202.601C301.13 202.988 300.486 203.76 299.971 204.79L294.691 201.829C295.206 200.799 295.722 200.026 296.494 199.64L321.347 185.217C321.862 184.96 322.377 184.96 322.763 185.088C323.536 185.475 327.528 187.793 328.043 188.179Z" fill="white"/>
<path d="M326.627 221.788L301.774 236.21C300.358 236.983 299.199 235.695 299.199 233.12V208.782C299.199 206.207 300.358 203.503 301.774 202.73L326.627 188.308C328.043 187.535 329.202 188.823 329.202 191.398V215.736C329.331 218.182 328.172 221.015 326.627 221.788Z" fill="#0FD861"/>
<path d="M278.337 210.843C277.951 210.585 277.436 210.585 276.921 210.971L252.068 225.394C250.652 226.166 249.493 228.999 249.493 231.446V255.784C249.493 257.329 250.008 258.488 250.652 259.003C251.038 259.26 255.159 261.578 255.931 261.965C256.318 262.222 256.833 262.222 257.348 261.836L282.2 247.413C283.617 246.641 284.776 243.808 284.776 241.361V217.024C284.776 215.35 284.261 214.191 283.617 213.804C283.231 213.547 279.11 211.229 278.337 210.843Z" fill="#F29F0C"/>
<path opacity="0.25" d="M256.06 261.965C255.931 261.965 255.931 261.965 256.06 261.965C255.287 261.578 251.167 259.132 250.781 258.874C250.137 258.488 249.622 257.329 249.622 255.655V231.317C249.622 230.03 249.879 228.613 250.523 227.454L255.803 230.416C255.287 231.575 255.03 232.862 255.03 234.279V258.617C254.772 260.419 255.287 261.578 256.06 261.965Z" fill="black"/>
<path opacity="0.5" d="M283.617 213.804C283.231 213.547 282.716 213.675 282.33 213.933L257.477 228.355C256.833 228.742 256.189 229.514 255.674 230.544L250.395 227.583C250.91 226.552 251.425 225.78 252.197 225.393L277.05 210.971C277.565 210.714 278.08 210.714 278.467 210.842C279.11 211.229 283.102 213.547 283.617 213.804Z" fill="white"/>
<path d="M282.201 247.414L257.348 261.836C255.931 262.609 254.772 261.321 254.772 258.746V234.408C254.772 231.833 255.931 229.129 257.348 228.356L282.201 213.934C283.617 213.161 284.776 214.449 284.776 217.024V241.362C284.776 243.937 283.617 246.641 282.201 247.414Z" fill="#F29F0C"/>
<path d="M322.892 390.735C322.506 390.478 321.991 390.478 321.476 390.864L296.623 405.157C295.207 405.93 294.048 408.763 294.048 411.21V435.547C294.048 437.093 294.563 438.252 295.207 438.767C295.593 439.024 299.714 441.342 300.486 441.728C300.873 441.986 301.388 441.986 301.903 441.6L326.756 427.177C328.172 426.405 329.331 423.572 329.331 421.125V396.787C329.331 395.113 328.816 393.954 328.172 393.568C327.657 393.439 323.536 391.121 322.892 390.735Z" fill="#E0E0E0"/>
<path d="M328.043 393.697C327.657 393.439 327.142 393.568 326.755 393.825L301.774 408.248C301.13 408.634 300.486 409.407 299.971 410.437L294.691 407.475C295.206 406.445 295.722 405.672 296.494 405.286L321.347 390.864C321.862 390.606 322.377 390.606 322.763 390.735C323.536 391.121 327.528 393.439 328.043 393.697Z" fill="#F0F0F0"/>
<path opacity="0.2" d="M300.486 441.857C300.486 441.857 300.357 441.857 300.486 441.857C299.713 441.471 295.593 439.024 295.206 438.767C294.562 438.38 294.047 437.221 294.047 435.547V411.21C294.047 409.922 294.305 408.506 294.949 407.347L300.228 410.308C299.713 411.467 299.456 412.884 299.456 414.172V438.509C299.198 440.312 299.713 441.471 300.486 441.857Z" fill="black"/>
<path d="M278.337 364.981C277.951 364.724 277.436 364.724 276.921 365.11L252.068 379.532C250.652 380.305 249.493 383.138 249.493 385.585V409.922C249.493 411.467 250.008 412.626 250.652 413.141C251.038 413.399 255.159 415.717 255.931 416.103C256.318 416.361 256.833 416.361 257.348 415.974L282.2 401.552C283.617 400.779 284.776 397.947 284.776 395.5V371.162C284.776 369.488 284.261 368.329 283.617 367.943C283.231 367.814 279.11 365.368 278.337 364.981Z" fill="#E0E0E0"/>
<path d="M283.617 367.943C283.231 367.685 282.715 367.814 282.329 368.072L257.476 382.494C256.833 382.88 256.189 383.653 255.674 384.683L250.394 381.721C250.909 380.691 251.424 379.918 252.197 379.532L277.05 365.11C277.565 364.852 278.08 364.852 278.466 364.981C279.11 365.367 283.102 367.685 283.617 367.943Z" fill="#F0F0F0"/>
<path opacity="0.2" d="M256.06 416.103C255.931 416.103 255.931 416.103 256.06 416.103C255.287 415.717 251.167 413.27 250.781 413.013C250.137 412.627 249.622 411.468 249.622 409.794V385.456C249.622 384.168 249.879 382.752 250.523 381.593L255.803 384.554C255.287 385.713 255.03 387.001 255.03 388.418V412.755C254.772 414.558 255.287 415.717 256.06 416.103Z" fill="black"/>
<path d="M367.318 313.601C366.931 313.344 366.416 313.344 365.901 313.73L341.049 328.152C339.632 328.925 338.473 331.758 338.473 334.205V358.542C338.473 360.088 338.988 361.247 339.632 361.762C340.018 362.019 344.139 364.337 344.912 364.723C345.298 364.981 345.813 364.981 346.328 364.595L371.181 350.172C372.597 349.4 373.756 346.567 373.756 344.12V319.782C373.756 318.108 373.241 316.949 372.597 316.563C372.082 316.434 367.962 314.116 367.318 313.601Z" fill="#E0E0E0"/>
<path d="M372.469 316.692C372.083 316.434 371.568 316.563 371.181 316.821L346.328 331.243C345.685 331.629 345.041 332.402 344.526 333.432L339.246 330.47C339.761 329.44 340.276 328.668 341.049 328.281L365.902 313.859C366.417 313.601 366.932 313.601 367.318 313.73C367.962 314.116 371.954 316.306 372.469 316.692Z" fill="#F0F0F0"/>
<path opacity="0.2" d="M344.912 364.852C344.912 364.852 344.912 364.724 344.912 364.852C344.139 364.466 340.018 362.019 339.632 361.762C338.988 361.376 338.473 360.217 338.473 358.543V334.205C338.473 332.917 338.731 331.501 339.375 330.342L344.654 333.304C344.139 334.462 343.882 335.879 343.882 337.167V361.504C343.624 363.307 344.139 364.466 344.912 364.852Z" fill="black"/>
<path d="M322.892 339.355C322.506 339.098 321.991 339.098 321.476 339.484L296.623 353.778C295.206 354.55 294.047 357.383 294.047 359.83V384.167C294.047 385.713 294.562 386.872 295.206 387.387C295.593 387.644 299.713 389.962 300.486 390.348C300.872 390.606 301.387 390.606 301.902 390.22L326.755 375.797C328.172 375.025 329.331 372.192 329.331 369.745V345.407C329.331 343.733 328.815 342.575 328.172 342.188C327.657 342.059 323.536 339.742 322.892 339.355Z" fill="#E0E0E0"/>
<path d="M328.043 342.318C327.657 342.06 327.142 342.189 326.755 342.446L301.774 356.74C301.13 357.126 300.486 357.899 299.971 358.929L294.691 355.967C295.206 354.937 295.722 354.165 296.494 353.778L321.347 339.356C321.862 339.098 322.377 339.098 322.763 339.227C323.536 339.742 327.528 342.06 328.043 342.318Z" fill="#F0F0F0"/>
<path opacity="0.2" d="M300.486 390.477C300.486 390.477 300.357 390.477 300.486 390.477C299.713 390.091 295.593 387.644 295.206 387.387C294.562 387.001 294.047 385.842 294.047 384.168V359.83C294.047 358.542 294.305 357.126 294.949 355.967L300.228 358.929C299.713 360.087 299.456 361.375 299.456 362.792V387.129C299.198 388.932 299.713 390.091 300.486 390.477Z" fill="black"/>
<path d="M278.337 313.601C277.951 313.344 277.436 313.344 276.921 313.73L252.068 328.152C250.652 328.925 249.493 331.758 249.493 334.205V358.542C249.493 360.088 250.008 361.247 250.652 361.762C251.038 362.019 255.159 364.337 255.931 364.723C256.318 364.981 256.833 364.981 257.348 364.595L282.2 350.172C283.617 349.4 284.776 346.567 284.776 344.12V319.782C284.776 318.108 284.261 316.949 283.617 316.563C283.231 316.434 279.11 313.988 278.337 313.601Z" fill="#E0E0E0"/>
<path d="M283.617 316.564C283.231 316.306 282.715 316.435 282.329 316.693L257.476 331.115C256.833 331.501 256.189 332.274 255.674 333.304L250.394 330.342C250.909 329.312 251.424 328.54 252.197 328.153L277.05 313.731C277.565 313.473 278.08 313.473 278.466 313.602C279.11 313.988 283.102 316.306 283.617 316.564Z" fill="#F0F0F0"/>
<path opacity="0.2" d="M256.06 364.723C255.931 364.723 255.931 364.723 256.06 364.723C255.287 364.337 251.167 361.89 250.781 361.633C250.137 361.247 249.622 360.088 249.622 358.414V334.076C249.622 332.788 249.879 331.372 250.523 330.213L255.803 333.175C255.287 334.334 255.03 335.75 255.03 337.038V361.375C254.772 363.178 255.287 364.337 256.06 364.723Z" fill="black"/>
<path d="M367.318 262.222C366.931 261.965 366.416 261.965 365.901 262.351L341.049 276.774C339.632 277.546 338.473 280.379 338.473 282.826V307.163C338.473 308.709 338.988 309.868 339.632 310.383C340.018 310.64 344.139 312.958 344.912 313.344C345.298 313.602 345.813 313.602 346.328 313.216L371.181 298.793C372.597 298.021 373.756 295.188 373.756 292.741V268.403C373.756 266.729 373.241 265.571 372.597 265.184C372.082 265.055 367.962 262.738 367.318 262.222Z" fill="#E0E0E0"/>
<path d="M372.469 265.312C372.083 265.054 371.568 265.183 371.181 265.441L346.328 279.863C345.685 280.249 345.041 281.022 344.526 282.052L339.246 279.09C339.761 278.06 340.276 277.288 341.049 276.901L365.902 262.479C366.417 262.221 366.932 262.221 367.318 262.35C367.962 262.737 371.954 264.926 372.469 265.312Z" fill="#F0F0F0"/>
<path opacity="0.2" d="M344.912 313.473C344.912 313.473 344.912 313.345 344.912 313.473C344.139 313.087 340.018 310.64 339.632 310.383C338.988 309.997 338.473 308.838 338.473 307.164V282.826C338.473 281.538 338.731 280.122 339.375 278.963L344.654 281.925C344.139 283.084 343.882 284.371 343.882 285.788V310.125C343.624 311.928 344.139 313.087 344.912 313.473Z" fill="black"/>
<path d="M322.892 287.976C322.506 287.719 321.991 287.719 321.476 288.105L296.623 302.399C295.206 303.171 294.047 306.004 294.047 308.451V332.789C294.047 334.334 294.562 335.493 295.206 336.008C295.593 336.265 299.713 338.583 300.486 338.97C300.872 339.227 301.387 339.227 301.902 338.841L326.755 324.418C328.172 323.646 329.331 320.813 329.331 318.366V294.029C329.331 292.355 328.815 291.196 328.172 290.809C327.657 290.681 323.536 288.363 322.892 287.976Z" fill="#E0E0E0"/>
<path d="M328.043 290.939C327.657 290.681 327.142 290.81 326.755 291.068L301.774 305.361C301.13 305.747 300.486 306.52 299.971 307.55L294.691 304.588C295.206 303.558 295.722 302.786 296.494 302.399L321.347 287.977C321.862 287.719 322.377 287.719 322.763 287.848C323.536 288.363 327.528 290.681 328.043 290.939Z" fill="#F0F0F0"/>
<path opacity="0.2" d="M300.486 339.098C300.486 339.098 300.357 339.098 300.486 339.098C299.713 338.712 295.593 336.265 295.206 336.008C294.562 335.622 294.047 334.463 294.047 332.789V308.451C294.047 307.163 294.305 305.747 294.949 304.588L300.228 307.55C299.713 308.709 299.456 309.996 299.456 311.413V335.75C299.198 337.553 299.713 338.712 300.486 339.098Z" fill="black"/>
<path d="M278.337 262.222C277.951 261.965 277.436 261.965 276.921 262.351L252.068 276.645C250.652 277.417 249.493 280.25 249.493 282.697V307.035C249.493 308.58 250.008 309.739 250.652 310.254C251.038 310.511 255.159 312.829 255.931 313.216C256.318 313.473 256.833 313.473 257.348 313.087L282.2 298.665C283.617 297.892 284.776 295.059 284.776 292.612V268.275C284.776 266.601 284.261 265.442 283.617 265.055C283.231 265.055 279.11 262.609 278.337 262.222Z" fill="#E0E0E0"/>
<path d="M283.617 265.184C283.231 264.926 282.715 265.055 282.329 265.313L257.476 279.735C256.833 280.121 256.189 280.894 255.674 281.924L250.394 278.962C250.909 277.932 251.424 277.16 252.197 276.773L277.05 262.351C277.565 262.094 278.08 262.094 278.466 262.222C279.11 262.609 283.102 264.926 283.617 265.184Z" fill="#F0F0F0"/>
<path opacity="0.2" d="M256.06 313.345C255.931 313.345 255.931 313.345 256.06 313.345C255.287 312.958 251.167 310.512 250.781 310.254C250.137 309.868 249.622 308.709 249.622 307.035V282.697C249.622 281.409 249.879 279.993 250.523 278.834L255.803 281.796C255.287 282.955 255.03 284.242 255.03 285.659V309.996C254.772 311.799 255.287 312.958 256.06 313.345Z" fill="black"/>
<path d="M367.318 210.843C366.931 210.585 366.416 210.585 365.901 210.971L341.049 225.394C339.632 226.166 338.473 228.999 338.473 231.446V255.784C338.473 257.329 338.988 258.488 339.632 259.003C340.018 259.26 344.139 261.578 344.912 261.965C345.298 262.222 345.813 262.222 346.328 261.836L371.181 247.413C372.597 246.641 373.756 243.808 373.756 241.361V217.024C373.756 215.35 373.241 214.191 372.597 213.804C372.082 213.676 367.962 211.358 367.318 210.843Z" fill="#E0E0E0"/>
<path d="M372.469 213.933C372.083 213.675 371.568 213.804 371.181 214.062L346.328 228.484C345.685 228.87 345.041 229.643 344.526 230.673L339.246 227.711C339.761 226.681 340.276 225.909 341.049 225.522L365.902 211.1C366.417 210.843 366.932 210.843 367.318 210.971C367.962 211.358 371.954 213.547 372.469 213.933Z" fill="#F0F0F0"/>
<path opacity="0.2" d="M344.912 262.094C344.912 262.094 344.912 261.965 344.912 262.094C344.139 261.707 340.018 259.261 339.632 259.003C338.988 258.617 338.473 257.458 338.473 255.784V231.446C338.473 230.158 338.731 228.742 339.375 227.583L344.654 230.545C344.139 231.704 343.882 232.991 343.882 234.408V258.746C343.624 260.548 344.139 261.707 344.912 262.094Z" fill="black"/>
<path d="M322.892 236.596C322.506 236.339 321.991 236.339 321.476 236.725L296.623 251.019C295.206 251.791 294.047 254.624 294.047 257.071V281.409C294.047 282.954 294.562 284.113 295.206 284.628C295.593 284.885 299.713 287.203 300.486 287.59C300.872 287.847 301.387 287.847 301.902 287.461L326.755 273.039C328.172 272.266 329.331 269.433 329.331 266.986V242.649C329.331 240.975 328.815 239.816 328.172 239.429C327.657 239.301 323.536 236.983 322.892 236.596Z" fill="#E0E0E0"/>
<path d="M328.043 239.559C327.657 239.301 327.142 239.43 326.755 239.688L301.774 253.981C301.13 254.367 300.486 255.14 299.971 256.17L294.691 253.209C295.206 252.178 295.722 251.406 296.494 251.019L321.347 236.597C321.862 236.34 322.377 236.34 322.763 236.468C323.536 236.983 327.528 239.301 328.043 239.559Z" fill="#F0F0F0"/>
<path opacity="0.2" d="M300.486 287.719C300.486 287.719 300.357 287.719 300.486 287.719C299.713 287.332 295.593 284.886 295.206 284.628C294.562 284.242 294.047 283.083 294.047 281.409V257.071C294.047 255.783 294.305 254.367 294.949 253.208L300.228 256.17C299.713 257.329 299.456 258.616 299.456 260.033V284.371C299.198 286.173 299.713 287.332 300.486 287.719Z" fill="black"/>
<path d="M267.521 297.892C267.521 297.892 267.521 297.763 267.521 297.634L270.611 284.628L266.233 287.075C266.104 287.075 265.975 287.075 265.975 287.075C265.847 286.946 265.847 286.946 265.847 286.689V284.371C265.847 284.242 265.847 283.985 265.975 283.856C266.104 283.727 266.104 283.598 266.233 283.469L273.187 279.478C273.315 279.478 273.444 279.478 273.444 279.478C273.573 279.606 273.573 279.606 273.573 279.864V281.924C273.573 282.182 273.444 282.568 273.315 283.212L270.225 296.347C270.225 296.475 270.096 296.604 270.096 296.862C270.096 296.99 269.967 297.119 269.839 297.119L267.778 298.278C267.649 298.278 267.649 298.278 267.521 298.278C267.521 298.149 267.521 298.021 267.521 297.892Z" fill="#455A64"/>
<path d="M310.144 262.866C310.144 262.093 310.273 261.449 310.53 260.677C310.788 259.904 311.046 259.26 311.432 258.616C311.818 257.972 312.204 257.329 312.72 256.814C313.235 256.298 313.75 255.912 314.265 255.526C314.78 255.268 315.295 255.011 315.81 255.011C316.325 255.011 316.711 255.011 317.098 255.268C317.484 255.526 317.742 255.783 317.999 256.298C318.257 256.814 318.385 257.329 318.385 258.101C318.385 258.745 318.257 259.26 318.128 259.904C317.999 260.419 317.742 261.063 317.484 261.578C317.742 261.836 317.999 262.093 318.257 262.608C318.385 262.995 318.514 263.638 318.514 264.282C318.514 265.055 318.385 265.699 318.128 266.471C317.87 267.244 317.613 267.888 317.227 268.532C316.84 269.176 316.325 269.819 315.81 270.334C315.295 270.85 314.78 271.365 314.136 271.622C313.492 272.008 312.977 272.137 312.462 272.266C311.947 272.266 311.432 272.266 311.046 272.008C310.659 271.751 310.402 271.493 310.144 270.978C309.887 270.463 309.758 269.948 309.758 269.176C309.758 268.532 309.887 267.888 310.015 267.244C310.144 266.6 310.402 265.956 310.788 265.441C310.53 265.184 310.402 264.797 310.273 264.411C310.273 263.896 310.144 263.381 310.144 262.866ZM312.591 267.63C312.591 268.017 312.72 268.403 312.977 268.532C313.235 268.66 313.621 268.532 314.136 268.274C314.651 268.017 315.037 267.63 315.295 267.115C315.552 266.729 315.681 266.214 315.681 265.827C315.681 265.441 315.552 265.055 315.295 264.926C315.037 264.797 314.651 264.926 314.136 265.184C313.621 265.441 313.235 265.827 312.977 266.343C312.72 266.858 312.591 267.244 312.591 267.63ZM312.848 261.192C312.848 261.578 312.977 261.964 313.235 262.093C313.492 262.222 313.878 262.222 314.265 261.964C314.651 261.707 315.037 261.321 315.295 260.934C315.552 260.548 315.681 260.033 315.681 259.646C315.681 259.26 315.552 258.874 315.295 258.745C315.037 258.616 314.651 258.616 314.265 258.874C313.878 259.131 313.492 259.518 313.235 259.904C312.977 260.419 312.848 260.805 312.848 261.192Z" fill="#455A64"/>
<path d="M354.441 238.013C354.441 237.112 354.57 236.339 354.827 235.438C355.085 234.665 355.342 233.893 355.729 233.12C356.115 232.476 356.63 231.832 357.145 231.189C357.66 230.673 358.175 230.158 358.69 229.901C359.205 229.643 359.721 229.386 360.236 229.386C360.751 229.386 361.266 229.386 361.652 229.643C362.038 229.901 362.425 230.287 362.553 230.802C362.811 231.317 362.94 232.09 362.94 232.991C362.94 233.378 362.94 233.893 362.811 234.279C362.811 234.665 362.682 235.052 362.553 235.438C362.425 235.824 362.296 236.211 362.167 236.597C362.038 236.983 361.91 237.37 361.781 237.627L359.077 245.096C359.077 245.225 358.948 245.353 358.948 245.482C358.948 245.611 358.819 245.74 358.69 245.868L356.372 247.156C356.244 247.156 356.244 247.156 356.115 247.156C356.115 247.027 355.986 247.027 355.986 246.899C355.986 246.77 355.986 246.77 355.986 246.77V246.641L357.789 241.619C357.274 241.748 356.888 241.876 356.372 241.748C355.986 241.748 355.6 241.49 355.214 241.233C354.827 240.975 354.57 240.589 354.441 240.074C354.57 239.43 354.441 238.786 354.441 238.013ZM360.236 234.665C360.236 234.408 360.236 234.15 360.107 233.893C359.978 233.635 359.849 233.506 359.721 233.506C359.592 233.378 359.463 233.378 359.205 233.378C359.077 233.378 358.819 233.506 358.562 233.635C358.304 233.764 358.175 233.893 357.918 234.15C357.789 234.408 357.531 234.537 357.403 234.794C357.274 235.052 357.145 235.309 357.016 235.567C356.888 235.824 356.888 236.211 356.888 236.468C356.888 236.726 356.888 236.983 357.016 237.241C357.145 237.498 357.274 237.627 357.403 237.627C357.531 237.756 357.66 237.756 357.918 237.756C358.047 237.756 358.304 237.627 358.562 237.498C358.819 237.37 358.948 237.241 359.205 236.983C359.334 236.726 359.592 236.597 359.721 236.339C359.849 236.082 359.978 235.824 360.107 235.567C360.236 235.309 360.236 234.923 360.236 234.665Z" fill="#455A64"/>
<path d="M270.483 348.112C270.354 348.112 270.225 348.112 270.225 348.112C270.096 347.983 270.096 347.983 270.096 347.726V345.408L265.589 347.983C265.461 347.983 265.332 347.983 265.332 347.983C265.203 347.855 265.203 347.855 265.203 347.597V345.279C265.203 344.893 265.203 344.507 265.332 344.249L269.71 333.304C269.839 333.046 269.839 332.917 269.968 332.788C270.096 332.66 270.096 332.66 270.225 332.531L272.414 331.243C272.543 331.243 272.672 331.243 272.672 331.243C272.801 331.372 272.801 331.372 272.801 331.629V340.257L274.088 339.484C274.217 339.484 274.346 339.484 274.346 339.484C274.475 339.613 274.475 339.613 274.475 339.871V342.189C274.475 342.317 274.475 342.575 274.346 342.704C274.217 342.833 274.217 342.961 274.088 343.09L272.801 343.863V346.181C272.801 346.309 272.801 346.567 272.672 346.696C272.543 346.824 272.543 346.953 272.414 347.082L270.483 348.112ZM270.225 341.802V337.682L268.165 342.961L270.225 341.802Z" fill="#455A64"/>
<path d="M312.72 318.881C312.848 319.01 312.848 319.01 312.977 319.138C313.106 319.267 313.106 319.267 313.235 319.396C313.363 319.525 313.492 319.525 313.621 319.525C313.75 319.525 314.007 319.396 314.136 319.267C314.394 319.138 314.522 319.01 314.651 318.752C314.78 318.623 315.037 318.366 315.166 318.108C315.295 317.851 315.424 317.593 315.552 317.336C315.681 317.078 315.681 316.692 315.681 316.434C315.681 315.919 315.552 315.533 315.295 315.404C315.037 315.275 314.651 315.275 314.265 315.533C314.136 315.662 314.007 315.662 313.878 315.79C313.75 315.919 313.621 316.048 313.492 316.177C313.363 316.305 313.235 316.434 313.235 316.563C313.235 316.692 313.106 316.692 312.977 316.821L310.659 318.108C310.53 318.237 310.402 318.108 310.402 318.108C310.273 317.979 310.273 317.851 310.273 317.722L310.659 309.481C310.659 309.352 310.659 309.094 310.788 308.966C310.917 308.837 310.917 308.708 311.046 308.579L317.227 304.974C317.355 304.974 317.484 304.974 317.484 304.974C317.613 305.102 317.613 305.102 317.613 305.36V307.678C317.613 307.807 317.613 308.064 317.484 308.193C317.355 308.322 317.355 308.45 317.227 308.579L312.977 311.026L312.848 313.086C312.977 312.829 313.235 312.571 313.492 312.314C313.75 312.056 314.007 311.927 314.265 311.798C314.78 311.412 315.295 311.283 315.81 311.283C316.325 311.283 316.711 311.412 317.098 311.541C317.484 311.798 317.742 312.185 317.87 312.7C318.128 313.215 318.128 313.988 318.128 314.76C318.128 315.662 317.999 316.563 317.742 317.336C317.484 318.108 317.227 318.881 316.84 319.525C316.454 320.169 316.068 320.812 315.552 321.328C315.037 321.843 314.522 322.358 313.878 322.615C313.235 323.002 312.591 323.259 312.076 323.259C311.561 323.259 311.174 323.259 310.788 323.002C310.402 322.744 310.144 322.486 310.015 321.971C309.758 321.456 309.758 320.941 309.758 320.426C309.758 320.297 309.758 320.169 309.887 320.04C309.887 319.911 310.015 319.782 310.144 319.782L311.947 318.752C312.076 318.623 312.204 318.623 312.333 318.623C312.591 318.881 312.72 318.881 312.72 318.881Z" fill="#455A64"/>
<path d="M363.069 289.135C363.069 290.036 362.94 290.809 362.683 291.71C362.425 292.483 362.168 293.256 361.781 294.028C361.395 294.672 360.88 295.316 360.365 295.96C359.85 296.475 359.335 296.99 358.691 297.248C358.176 297.634 357.532 297.763 357.017 297.763C356.502 297.763 355.987 297.763 355.6 297.505C355.214 297.248 354.828 296.861 354.699 296.346C354.441 295.831 354.313 295.059 354.313 294.157C354.313 293.642 354.312 293.256 354.441 292.869C354.57 292.483 354.57 292.097 354.699 291.71C354.828 291.324 354.956 290.938 355.085 290.552C355.214 290.165 355.343 289.908 355.471 289.521L358.176 282.181C358.176 282.053 358.304 281.924 358.304 281.795C358.304 281.666 358.433 281.538 358.562 281.409L360.88 280.121C361.009 280.121 361.009 280.121 361.137 280.121C361.137 280.25 361.266 280.25 361.266 280.379C361.266 280.507 361.266 280.507 361.266 280.507V280.636L359.335 285.658C359.85 285.401 360.365 285.401 360.751 285.401C361.137 285.401 361.652 285.529 361.91 285.916C362.296 286.173 362.554 286.56 362.683 287.075C362.94 287.719 363.069 288.362 363.069 289.135ZM357.017 292.612C357.017 292.998 357.017 293.256 357.145 293.384C357.274 293.642 357.403 293.771 357.532 293.771C357.661 293.9 357.918 293.9 358.047 293.9C358.304 293.9 358.433 293.771 358.691 293.642C358.948 293.513 359.077 293.384 359.335 293.127C359.592 292.869 359.721 292.741 359.85 292.483C359.978 292.226 360.107 291.968 360.236 291.582C360.365 291.324 360.365 290.938 360.365 290.68C360.365 290.294 360.365 290.036 360.236 289.908C360.107 289.65 359.978 289.521 359.85 289.521C359.721 289.393 359.463 289.393 359.335 289.393C359.077 289.393 358.948 289.521 358.691 289.65C358.433 289.779 358.304 289.908 358.047 290.165C357.789 290.423 357.661 290.552 357.532 290.809C357.403 291.067 357.274 291.324 357.145 291.71C357.145 291.968 357.017 292.226 357.017 292.612Z" fill="#455A64"/>
<path d="M266.748 390.993C266.62 390.864 266.62 390.736 266.62 390.607C266.62 390.478 266.748 390.221 266.748 390.092L269.839 384.555C269.968 384.426 269.968 384.297 270.096 384.04C270.225 383.911 270.354 383.782 270.483 383.653L272.286 382.623C272.414 382.623 272.543 382.623 272.543 382.623C272.672 382.752 272.672 382.752 272.672 383.009V397.432C272.672 397.56 272.672 397.818 272.543 397.947C272.414 398.076 272.414 398.204 272.286 398.333L270.354 399.492C270.225 399.492 270.096 399.492 270.096 399.492C269.968 399.363 269.968 399.363 269.968 399.106V389.319L268.294 392.281C268.165 392.41 268.165 392.538 268.036 392.538C267.907 392.538 267.779 392.538 267.779 392.41L266.748 390.993Z" fill="#455A64"/>
<path d="M318.257 361.376C318.257 361.762 318.257 362.277 318.128 362.664C318.128 363.05 317.999 363.565 317.87 363.951C317.742 364.338 317.484 364.853 317.355 365.368C317.098 365.883 316.84 366.398 316.583 366.913L314.522 370.39L318.128 368.33C318.257 368.33 318.385 368.33 318.385 368.33C318.514 368.458 318.514 368.458 318.514 368.716V371.034C318.514 371.163 318.514 371.42 318.385 371.549C318.257 371.678 318.257 371.806 318.128 371.935L310.53 376.313C310.402 376.313 310.273 376.313 310.273 376.313C310.144 376.185 310.144 376.185 310.144 375.927V373.995C310.144 373.738 310.144 373.48 310.273 373.223C310.273 372.965 310.402 372.708 310.659 372.45L315.037 365.239C315.424 364.595 315.552 364.209 315.681 363.823C315.81 363.436 315.81 363.179 315.81 362.792C315.81 362.664 315.81 362.535 315.81 362.406C315.81 362.277 315.681 362.02 315.681 361.891C315.552 361.762 315.424 361.634 315.295 361.634C315.166 361.634 314.909 361.634 314.651 361.762C314.393 361.891 314.136 362.149 314.007 362.406C313.878 362.664 313.75 362.921 313.621 363.05C313.492 363.308 313.492 363.565 313.363 363.694C313.363 363.951 313.235 364.08 313.235 364.209C313.235 364.466 313.106 364.595 312.977 364.724C312.848 364.853 312.719 364.982 312.591 364.982L310.788 366.012C310.659 366.012 310.659 366.012 310.53 366.012C310.53 366.012 310.402 365.883 310.402 365.754C310.402 365.11 310.53 364.466 310.659 363.694C310.788 362.921 311.045 362.277 311.432 361.634C311.818 360.99 312.204 360.346 312.719 359.702C313.235 359.058 313.75 358.672 314.522 358.157C315.166 357.77 315.681 357.642 316.196 357.642C316.711 357.642 317.098 357.77 317.484 358.157C317.87 358.414 317.999 358.801 318.257 359.444C318.128 360.088 318.257 360.732 318.257 361.376Z" fill="#455A64"/>
<path d="M362.168 330.857C362.296 330.857 362.425 330.857 362.425 330.857C362.554 330.986 362.554 330.986 362.554 331.244V333.562C362.554 333.69 362.554 333.948 362.425 334.077C362.296 334.205 362.296 334.334 362.296 334.463L360.493 338.197C361.266 338.069 361.91 338.197 362.296 338.584C362.811 338.97 363.069 339.871 363.069 341.03C363.069 342.704 362.683 344.25 361.91 345.537C361.137 346.825 360.107 347.855 358.691 348.628C358.047 349.014 357.403 349.272 356.888 349.272C356.373 349.272 355.858 349.272 355.471 349.014C355.085 348.757 354.828 348.499 354.57 348.113C354.312 347.726 354.313 347.211 354.313 346.696C354.313 346.567 354.312 346.439 354.441 346.31C354.441 346.181 354.57 346.052 354.699 346.052L356.502 345.022C356.759 344.893 356.888 344.893 357.017 345.022C357.145 345.151 357.274 345.151 357.403 345.28C357.532 345.408 357.661 345.408 357.918 345.408C358.176 345.408 358.433 345.28 358.819 345.151C359.335 344.893 359.721 344.507 359.978 344.121C360.236 343.734 360.493 343.219 360.493 342.704C360.493 342.189 360.365 341.932 359.978 341.803C359.721 341.803 359.335 341.803 358.819 342.06L357.661 342.704C357.532 342.704 357.403 342.704 357.403 342.704C357.274 342.576 357.274 342.576 357.274 342.318V340.386C357.274 340.258 357.274 340 357.403 339.871C357.532 339.743 357.532 339.485 357.661 339.356L359.206 336.137L355.471 338.326C355.343 338.326 355.214 338.326 355.214 338.326C355.085 338.197 355.085 338.197 355.085 337.94V335.622C355.085 335.493 355.085 335.236 355.214 335.107C355.343 334.978 355.343 334.849 355.471 334.721L362.168 330.857Z" fill="#455A64"/>
<path d="M314.265 409.793C315.037 409.407 315.552 409.149 316.196 409.149C316.711 409.149 317.098 409.407 317.484 409.664C317.87 410.051 318.128 410.566 318.256 411.21C318.385 411.854 318.514 412.497 318.514 413.399C318.514 414.043 318.514 414.687 318.514 415.33C318.514 415.974 318.514 416.747 318.514 417.262C318.514 418.035 318.385 418.936 318.256 419.709C318.128 420.481 317.87 421.383 317.484 422.026C317.098 422.799 316.711 423.443 316.196 424.087C315.681 424.731 315.037 425.246 314.265 425.632C313.492 426.018 312.977 426.276 312.333 426.276C311.818 426.276 311.432 426.018 311.045 425.761C310.659 425.375 310.401 424.859 310.273 424.216C310.144 423.572 310.015 422.928 310.015 422.026C310.015 421.383 310.015 420.739 310.015 420.095C310.015 419.451 310.015 418.678 310.015 418.035C310.015 417.262 310.144 416.361 310.273 415.588C310.401 414.815 310.659 413.914 311.045 413.27C311.432 412.497 311.818 411.854 312.333 411.21C312.848 410.695 313.492 410.18 314.265 409.793ZM315.81 418.807C315.81 417.52 315.81 416.232 315.81 415.073C315.81 414.687 315.81 414.429 315.681 414.171C315.681 413.914 315.552 413.656 315.424 413.528C315.295 413.399 315.166 413.27 314.908 413.27C314.651 413.27 314.522 413.27 314.136 413.528C313.878 413.656 313.621 413.914 313.363 414.171C313.106 414.429 312.977 414.687 312.848 414.944C312.719 415.202 312.591 415.588 312.591 415.846C312.591 416.232 312.462 416.489 312.462 416.876C312.462 418.163 312.462 419.322 312.462 420.61C312.462 420.996 312.462 421.254 312.591 421.64C312.591 421.898 312.719 422.155 312.848 422.284C312.977 422.413 313.106 422.542 313.363 422.542C313.621 422.542 313.75 422.542 314.136 422.284C314.393 422.155 314.651 421.898 314.908 421.64C315.166 421.383 315.295 421.125 315.424 420.868C315.552 420.61 315.681 420.224 315.681 419.966C315.81 419.451 315.81 419.194 315.81 418.807Z" fill="#455A64"/>
<path d="M397.708 167.963C397.58 167.834 397.58 167.834 397.451 167.705L396.034 164.872V172.212C396.034 172.341 396.034 172.598 395.905 172.727C395.777 172.856 395.777 172.985 395.648 173.113L393.716 174.272C393.588 174.272 393.459 174.272 393.459 174.272C393.33 174.144 393.33 174.144 393.33 173.886V159.464C393.33 159.335 393.33 159.077 393.459 158.949C393.588 158.82 393.588 158.691 393.716 158.562L395.39 157.532C395.519 157.403 395.777 157.403 395.777 157.532C395.905 157.661 395.905 157.661 395.905 157.79L398.223 162.554L400.541 154.957C400.541 154.828 400.67 154.699 400.67 154.442C400.799 154.184 400.928 154.055 401.056 153.927L402.73 152.896C402.859 152.896 402.988 152.896 402.988 152.896C403.117 153.025 403.117 153.025 403.117 153.283V167.705C403.117 167.834 403.117 168.091 402.988 168.22C402.859 168.349 402.859 168.478 402.73 168.607L400.799 169.765C400.67 169.765 400.541 169.765 400.541 169.765C400.412 169.637 400.412 169.637 400.412 169.379V162.039L398.996 166.546C398.996 166.675 398.867 166.804 398.738 167.061C398.61 167.19 398.481 167.319 398.352 167.448L397.451 167.963C397.837 167.963 397.708 167.963 397.708 167.963Z" fill="#FAFAFA"/>
<path d="M410.328 159.593V163.327C410.328 163.456 410.328 163.713 410.199 163.842C410.071 163.971 410.071 164.1 409.942 164.228L408.139 165.259C408.01 165.259 407.881 165.259 407.881 165.259C407.753 165.13 407.753 165.13 407.753 164.872V161.138L405.564 162.426C405.435 162.426 405.306 162.426 405.306 162.426C405.177 162.297 405.177 162.168 405.177 162.039V159.85C405.177 159.721 405.177 159.464 405.306 159.335C405.435 159.206 405.435 159.078 405.564 158.949L407.753 157.661V153.927C407.753 153.798 407.753 153.54 407.881 153.412C408.01 153.283 408.01 153.154 408.139 153.025L409.942 151.995C410.071 151.995 410.199 151.995 410.199 151.995C410.328 152.124 410.328 152.253 410.328 152.381V156.116L412.517 154.828C412.646 154.828 412.775 154.828 412.775 154.828C412.903 154.957 412.903 154.957 412.903 155.214V157.403C412.903 157.532 412.903 157.79 412.775 157.919C412.646 158.047 412.646 158.176 412.517 158.305L410.328 159.593Z" fill="#FAFAFA"/>
<path d="M398.867 216.38C398.738 216.38 398.61 216.38 398.61 216.38C398.481 216.251 398.481 216.251 398.481 215.993V213.804C398.481 213.676 398.481 213.418 398.61 213.289C398.738 213.16 398.738 213.032 398.867 212.903L407.495 207.881C407.624 207.881 407.752 207.881 407.752 207.881C407.881 208.01 407.881 208.01 407.881 208.267V210.456C407.881 210.585 407.881 210.843 407.752 210.971C407.624 211.1 407.624 211.229 407.495 211.358L398.867 216.38Z" fill="#FAFAFA"/>
<path d="M404.533 205.048C404.533 206.207 403.889 207.624 403.117 208.139C402.344 208.654 401.7 208.01 401.7 206.722C401.7 205.563 402.344 204.147 403.117 203.632C403.889 203.246 404.533 203.889 404.533 205.048Z" fill="#FAFAFA"/>
<path d="M404.533 217.796C404.533 216.637 403.889 215.994 403.117 216.38C402.344 216.895 401.7 218.183 401.7 219.47C401.7 220.629 402.344 221.273 403.117 220.887C403.889 220.372 404.533 218.955 404.533 217.796Z" fill="#FAFAFA"/>
<path d="M401.314 264.669L399.382 262.866C399.253 262.737 399.253 262.737 399.253 262.48C399.253 262.351 399.253 262.094 399.382 261.965L400.67 259.261C400.799 259.132 400.799 259.003 400.927 258.874C401.056 258.874 401.185 258.874 401.185 258.874L403.117 260.677L405.048 256.685C405.177 256.556 405.177 256.428 405.306 256.299C405.434 256.299 405.563 256.299 405.563 256.299L406.851 257.587C406.98 257.715 406.98 257.715 406.98 257.973C406.98 258.102 406.98 258.359 406.851 258.488L404.919 262.48L406.851 264.283C406.98 264.411 406.98 264.54 406.98 264.669C406.98 264.798 406.98 265.055 406.851 265.184L405.563 267.888C405.434 268.017 405.434 268.146 405.306 268.275C405.177 268.275 405.048 268.275 405.048 268.275L403.117 266.472L401.185 270.464C401.056 270.592 401.056 270.721 400.927 270.85C400.799 270.85 400.67 270.85 400.67 270.85L399.382 269.562C399.253 269.433 399.253 269.433 399.253 269.176C399.253 269.047 399.253 268.79 399.382 268.661L401.314 264.669Z" fill="#FAFAFA"/>
<path d="M398.867 319.268C398.738 319.268 398.609 319.268 398.609 319.268C398.48 319.14 398.48 319.14 398.48 318.882V316.693C398.48 316.564 398.48 316.307 398.609 316.178C398.738 316.049 398.738 315.92 398.867 315.792L407.494 310.77C407.623 310.77 407.752 310.77 407.752 310.77C407.881 310.898 407.881 310.898 407.881 311.156V313.345C407.881 313.474 407.881 313.731 407.752 313.86C407.623 313.989 407.623 314.118 407.494 314.246L398.867 319.268Z" fill="#FAFAFA"/>
<path d="M266.104 437.737C266.362 437.608 266.491 437.608 266.491 437.737C266.619 437.866 266.619 437.995 266.748 438.123L269.967 450.357C269.967 450.485 269.967 450.614 269.967 450.614C269.967 450.743 269.967 450.872 269.839 451.001C269.839 451.129 269.71 451.258 269.581 451.258L267.778 452.288C267.521 452.417 267.392 452.417 267.392 452.288C267.263 452.16 267.263 452.16 267.263 452.031L266.877 450.357L263.014 452.546L262.628 454.606C262.628 454.735 262.499 454.864 262.499 455.121C262.37 455.25 262.241 455.379 262.112 455.508L260.31 456.538C260.181 456.538 260.181 456.538 260.052 456.538C260.052 456.538 259.923 456.409 259.923 456.28C259.923 456.151 259.923 456.023 259.923 455.894L263.143 440.184C263.143 440.055 263.271 439.798 263.4 439.54C263.529 439.282 263.658 439.154 263.786 439.025L266.104 437.737ZM263.786 448.811L266.104 447.395L264.945 442.759L263.786 448.811Z" fill="#FAFAFA"/>
<path d="M273.316 439.54C273.316 439.798 273.316 440.055 273.316 440.313C273.316 440.699 273.316 440.956 273.316 441.343C273.316 441.729 273.316 442.115 273.316 442.373C273.316 442.759 273.316 443.017 273.316 443.146C273.316 443.532 273.316 443.789 273.445 444.047C273.573 444.305 273.573 444.562 273.702 444.691C273.831 444.82 274.088 444.948 274.217 444.948C274.475 444.948 274.732 444.82 274.99 444.691C275.376 444.562 275.634 444.305 275.763 444.047C276.02 443.789 276.149 443.532 276.278 443.274C276.406 443.017 276.535 442.759 276.535 442.502C276.664 442.244 276.664 441.987 276.664 441.858C276.664 441.6 276.793 441.343 276.793 441.214C276.793 441.085 276.921 440.956 277.179 440.828L279.111 439.669C279.239 439.669 279.239 439.669 279.368 439.669C279.368 439.669 279.497 439.798 279.497 439.926C279.497 440.699 279.368 441.472 279.111 442.244C278.853 443.017 278.595 443.789 278.209 444.562C277.823 445.335 277.308 445.979 276.793 446.494C276.278 447.137 275.634 447.524 274.99 447.91C274.346 448.296 273.702 448.554 273.187 448.554C272.672 448.554 272.157 448.425 271.771 448.039C271.384 447.653 271.127 447.266 270.869 446.622C270.612 445.979 270.483 445.335 270.483 444.433C270.483 443.789 270.483 443.146 270.483 442.502C270.483 441.858 270.483 441.085 270.483 440.441C270.483 439.669 270.612 438.767 270.869 437.866C271.127 436.965 271.384 436.192 271.771 435.419C272.157 434.647 272.672 434.003 273.187 433.359C273.702 432.715 274.346 432.2 275.119 431.814C275.763 431.427 276.406 431.299 276.921 431.17C277.437 431.17 277.952 431.299 278.338 431.556C278.724 431.814 279.111 432.2 279.239 432.715C279.497 433.23 279.626 433.874 279.626 434.647C279.626 434.776 279.626 434.904 279.497 435.033C279.497 435.162 279.368 435.291 279.239 435.291L277.308 436.45C277.179 436.578 277.05 436.578 276.921 436.45C276.921 436.45 276.793 436.192 276.793 436.063C276.793 435.934 276.664 435.806 276.664 435.548C276.535 435.419 276.535 435.291 276.406 435.162C276.278 435.033 276.149 435.033 275.891 435.033C275.634 435.033 275.376 435.162 275.119 435.291C274.732 435.419 274.475 435.677 274.346 435.934C274.088 436.192 273.96 436.45 273.831 436.836C273.702 437.093 273.573 437.48 273.573 437.866C273.316 438.896 273.316 439.154 273.316 439.54Z" fill="#FAFAFA"/>
<path d="M354.57 393.44C354.441 393.44 354.312 393.44 354.312 393.44C354.184 393.311 354.184 393.311 354.184 393.053V390.864C354.184 390.735 354.184 390.478 354.312 390.349C354.441 390.22 354.441 390.092 354.57 389.963L362.811 385.198C362.94 385.198 363.069 385.198 363.069 385.198C363.198 385.327 363.198 385.456 363.198 385.585V387.774C363.198 387.902 363.198 388.16 363.069 388.289C362.94 388.418 362.94 388.546 362.811 388.675L354.57 393.44ZM354.57 398.977C354.441 398.977 354.312 398.977 354.312 398.977C354.184 398.848 354.184 398.848 354.184 398.59V396.401C354.184 396.273 354.184 396.015 354.312 395.886C354.441 395.757 354.441 395.629 354.57 395.5L362.811 390.735C362.94 390.735 363.069 390.735 363.069 390.735C363.198 390.864 363.198 390.993 363.198 391.122V393.311C363.198 393.44 363.198 393.697 363.069 393.826C362.94 393.955 362.94 394.083 362.811 394.212L354.57 398.977Z" fill="#FAFAFA"/>
<path d="M404.404 367.428V371.162C404.404 371.291 404.404 371.548 404.275 371.677C404.147 371.806 404.147 371.935 404.018 372.063L402.215 373.093C402.086 373.093 401.958 373.093 401.958 373.093C401.958 373.093 401.829 372.965 401.829 372.707V368.973L399.64 370.261C399.511 370.261 399.382 370.261 399.382 370.261C399.253 370.132 399.253 370.003 399.253 369.874V367.685C399.253 367.556 399.253 367.299 399.382 367.17C399.511 367.041 399.511 366.912 399.64 366.784L401.829 365.496V361.762C401.829 361.633 401.829 361.375 401.958 361.247C402.086 361.118 402.086 360.989 402.215 360.86L404.018 359.83C404.147 359.83 404.275 359.83 404.275 359.83C404.404 359.959 404.404 360.088 404.404 360.216V363.951L406.593 362.663C406.722 362.663 406.851 362.663 406.851 362.663C406.98 362.792 406.98 362.792 406.98 363.049V365.238C406.98 365.367 406.98 365.625 406.851 365.754C406.722 365.882 406.722 366.011 406.593 366.14L404.404 367.428Z" fill="#FAFAFA"/>
<path d="M237.131 119.931C235.07 123.407 233.783 127.399 233.783 131.005V480.231C233.783 483.708 234.942 486.155 236.873 487.313C234.555 485.897 218.073 476.368 216.141 475.209C214.081 474.05 212.922 471.475 212.922 467.998V118.9C212.922 115.295 214.21 111.432 216.141 107.826L237.131 119.931Z" fill="#263238"/>
<path d="M422.303 13.0513C422.432 13.0513 422.432 13.1801 422.303 13.0513C420.371 11.8924 417.538 12.0211 414.448 13.8239L244.986 111.69C241.895 113.492 239.191 116.454 237.131 119.931L216.141 107.827C218.201 104.35 220.906 101.259 223.996 99.5852L393.458 1.71947C396.549 -0.0833193 399.253 -0.21209 401.313 0.818075C403.374 1.97701 420.371 11.8924 422.303 13.0513Z" fill="#455A64"/>
<path d="M409.04 112.848C408.525 113.749 407.881 114.522 407.108 114.908L252.326 204.275C250.78 205.176 249.493 204.404 249.493 202.73V130.232C249.493 128.429 250.78 126.24 252.326 125.338L341.564 73.8301L409.04 112.848Z" fill="#455A64"/>
<path d="M409.941 37.7744V110.143C409.941 111.045 409.683 112.075 409.168 112.848L341.563 73.9589L404.661 37.5168L407.108 36.1003C408.653 35.1989 409.941 35.9716 409.941 37.7744Z" fill="#263238"/>
<path d="M404.661 37.5176V107.183C404.661 108.985 403.374 111.174 401.828 112.076L249.493 200.026V130.361C249.493 128.558 250.78 126.369 252.326 125.468L404.661 37.5176Z" fill="#53A0FD"/>
<path opacity="0.25" d="M404.661 37.5176V107.183C404.661 108.985 403.374 111.174 401.828 112.076L249.493 200.026V130.361C249.493 128.558 250.78 126.369 252.326 125.468L404.661 37.5176Z" fill="black"/>
<g opacity="0.5">
<path opacity="0.5" d="M278.208 163.712L272.8 166.803C271.255 167.704 269.967 167.575 268.937 166.545C267.907 165.515 267.392 163.841 267.392 161.523C267.392 161.008 267.52 160.364 267.778 159.849C268.035 159.334 268.422 158.948 268.808 158.69C269.194 158.433 269.452 158.561 269.709 158.819C269.967 159.076 270.096 159.463 270.096 160.107C270.096 161.266 270.353 162.038 270.868 162.553C271.383 163.068 272.027 163.068 272.8 162.682L278.208 159.592C278.981 159.205 279.625 158.433 280.14 157.274C280.655 156.115 280.913 154.956 280.913 153.797V148.517C280.011 149.805 279.11 150.706 278.208 151.221L272.8 154.312C271.255 155.213 269.967 155.085 268.937 154.054C267.907 153.024 267.392 151.35 267.392 149.032V144.912C267.392 142.594 267.907 140.276 268.937 138.087C269.967 135.898 271.255 134.224 272.8 133.451L278.208 130.361C279.754 129.459 281.041 129.588 282.071 130.618C283.102 131.648 283.617 133.322 283.617 135.64V152.38C283.617 154.698 283.102 157.016 282.071 159.205C281.041 161.266 279.754 162.811 278.208 163.712ZM280.913 136.928C280.913 135.769 280.655 134.996 280.14 134.481C279.625 133.966 278.981 133.966 278.208 134.352L272.8 137.443C272.027 137.829 271.383 138.602 270.868 139.761C270.353 140.92 270.096 142.079 270.096 143.238V147.358C270.096 148.517 270.353 149.29 270.868 149.805C271.383 150.32 272.027 150.32 272.8 149.934L278.208 146.843C278.981 146.457 279.625 145.684 280.14 144.525C280.655 143.366 280.913 142.208 280.913 141.049V136.928Z" fill="black"/>
<path opacity="0.5" d="M291.729 133.838C291.729 134.095 291.858 134.353 291.987 134.482C292.116 134.61 292.244 134.61 292.502 134.482L299.971 130.232C301.516 129.331 302.804 129.46 303.834 130.49C304.864 131.52 305.379 133.194 305.379 135.512V139.632C305.379 141.95 304.864 144.268 303.834 146.457C302.804 148.646 301.516 150.32 299.971 151.093L294.562 154.183C293.017 155.085 291.729 154.956 290.699 153.926C289.669 152.896 289.154 151.222 289.154 148.904C289.154 148.26 289.283 147.745 289.54 147.23C289.798 146.715 290.184 146.328 290.57 146.071C290.957 145.813 291.214 145.813 291.472 146.071C291.729 146.328 291.858 146.715 291.858 147.359C291.858 148.518 292.116 149.29 292.631 149.805C293.146 150.32 293.79 150.32 294.562 149.934L299.971 146.844C300.743 146.457 301.387 145.685 301.902 144.526C302.417 143.367 302.675 142.208 302.675 141.049V136.928C302.675 135.769 302.417 134.997 301.902 134.482C301.387 133.966 300.743 133.966 299.971 134.353L291.858 139.117C291.085 139.504 290.442 139.504 289.926 138.989C289.411 138.473 289.154 137.701 289.154 136.542V125.983C289.154 125.339 289.283 124.824 289.54 124.309C289.798 123.794 290.184 123.407 290.57 123.15L304.091 115.295C304.478 115.037 304.735 115.037 304.993 115.295C305.25 115.552 305.379 115.939 305.379 116.582C305.379 117.098 305.25 117.741 304.993 118.256C304.735 118.772 304.349 119.158 304.091 119.415L292.502 126.111C292.373 126.24 292.116 126.369 291.987 126.755C291.858 127.013 291.729 127.399 291.729 127.657V133.838Z" fill="black"/>
<path opacity="0.5" d="M321.604 138.603L316.196 141.693C314.651 142.595 313.363 142.466 312.333 141.436C311.303 140.405 310.788 138.731 310.788 136.414V119.673C310.788 117.356 311.303 115.038 312.333 112.849C313.363 110.659 314.651 108.985 316.196 108.213L321.604 105.122C323.15 104.221 324.437 104.35 325.467 105.38C326.498 106.41 327.013 108.084 327.013 110.402V127.142C327.013 129.46 326.498 131.778 325.467 133.967C324.437 136.156 323.15 137.701 321.604 138.603ZM316.196 137.573L321.604 134.482C321.991 134.224 322.506 133.838 322.892 133.194L313.492 118.643V134.997C313.492 136.156 313.749 136.929 314.264 137.444C314.779 137.959 315.423 137.959 316.196 137.573ZM321.604 109.243L316.196 112.333C315.681 112.591 315.295 112.977 314.908 113.621L324.309 128.172V111.947C324.309 110.788 324.051 110.016 323.536 109.501C323.021 108.857 322.377 108.857 321.604 109.243Z" fill="black"/>
<path opacity="0.5" d="M342.079 126.755L333.966 131.52C333.58 131.777 333.323 131.777 333.065 131.52C332.807 131.262 332.679 130.876 332.679 130.232C332.679 129.717 332.807 129.073 333.065 128.558C333.323 128.043 333.709 127.657 333.966 127.399L336.671 125.854V104.864C336.671 103.705 336.413 102.933 335.898 102.418C335.383 101.903 334.739 101.903 333.966 102.289C333.58 102.546 333.323 102.546 333.065 102.289C332.807 102.031 332.679 101.645 332.679 101.001C332.679 100.486 332.807 99.8422 333.065 99.3272C333.323 98.8121 333.709 98.4258 333.966 98.1682C335.512 97.2668 336.799 97.3956 337.83 98.4258C338.86 99.4559 339.375 101.13 339.375 103.448V124.309L342.079 122.763C342.465 122.506 342.723 122.506 343.109 122.763C343.367 123.021 343.495 123.407 343.495 124.051C343.495 124.566 343.367 125.21 343.109 125.725C342.723 126.24 342.337 126.627 342.079 126.755Z" fill="black"/>
<path opacity="0.5" d="M359.72 116.583L354.312 119.674C352.766 120.575 351.479 120.446 350.449 119.416C349.418 118.386 348.903 116.712 348.903 114.394V97.6539C348.903 95.336 349.418 93.0181 350.449 90.829C351.479 88.6399 352.766 86.9659 354.312 86.1933L359.72 83.1028C361.265 82.2014 362.553 82.3302 363.583 83.3603C364.613 84.3905 365.128 86.0645 365.128 88.3824V105.123C365.128 107.44 364.613 109.758 363.583 111.947C362.424 114.137 361.137 115.682 359.72 116.583ZM354.312 115.553L359.72 112.463C360.106 112.205 360.621 111.819 361.008 111.175L351.607 96.6237V112.978C351.607 114.137 351.865 114.909 352.38 115.424C352.895 115.939 353.539 115.939 354.312 115.553ZM359.72 87.3522L354.312 90.4427C353.797 90.7003 353.41 91.0866 353.024 91.7304L362.424 106.282V89.9276C362.424 88.7687 362.167 87.9961 361.652 87.481C361.137 86.9659 360.493 86.8371 359.72 87.3522Z" fill="black"/>
<path opacity="0.5" d="M386.505 100.486C386.247 101.001 385.861 101.388 385.475 101.645C385.088 101.903 384.831 101.903 384.573 101.645C384.316 101.388 384.187 101.001 384.187 100.358V88.7681C383.286 90.0559 382.384 90.9572 381.483 91.4723L376.074 94.5628C374.529 95.4642 373.241 95.3355 372.211 94.3053C371.181 93.2751 370.666 91.6011 370.666 89.2832V78.8528C370.666 78.3377 370.795 77.6939 371.052 77.1788C371.31 76.6637 371.696 76.2774 371.954 76.0199C372.34 75.7623 372.598 75.7623 372.984 76.0199C373.241 76.2774 373.37 76.6637 373.37 77.3076V87.738C373.37 88.8969 373.628 89.6695 374.143 90.1846C374.658 90.6997 375.302 90.6997 376.074 90.3134L381.483 87.2229C382.255 86.8366 382.899 86.064 383.414 84.905C383.929 83.7461 384.187 82.5872 384.187 81.4282V70.9978C384.187 70.4827 384.316 69.8389 384.573 69.3238C384.831 68.8087 385.217 68.4224 385.475 68.1648C385.861 67.9073 386.119 67.9073 386.505 68.1648C386.762 68.4224 386.891 68.8087 386.891 69.4525V98.6835C386.891 99.3274 386.762 99.9712 386.505 100.486Z" fill="black"/>
</g>
<path fill-rule="evenodd" clip-rule="evenodd" d="M270.74 249.86C264.559 253.337 259.666 250.504 259.666 243.55C259.666 236.597 264.688 227.969 270.74 224.492C276.921 221.016 281.815 223.849 281.815 230.802C281.815 237.756 276.793 246.383 270.74 249.86ZM275.634 232.734C275.891 230.931 274.732 230.673 273.187 230.931L273.702 228.355L272.543 228.742L272.028 231.188C271.77 231.317 271.384 231.317 271.127 231.446L271.642 228.999L270.483 229.386L269.968 231.961C269.71 232.09 269.453 232.09 269.195 232.219L267.521 232.734L267.263 234.408L268.165 234.15C268.68 234.021 268.68 234.279 268.68 234.665L268.165 237.498H268.294H268.165L267.392 241.49C267.392 241.748 267.135 242.005 266.877 242.134L265.976 242.391L265.332 244.323L266.877 243.808C267.135 243.679 267.392 243.679 267.779 243.55L267.263 246.126L268.422 245.74L268.938 243.164C269.324 243.035 269.581 243.035 269.839 242.907L269.324 245.482L270.483 245.096L270.998 242.52C273.058 241.748 274.603 240.717 275.247 238.271C275.762 236.21 275.247 235.567 274.088 235.567C274.99 234.923 275.505 234.021 275.634 232.734ZM272.929 238.657C272.543 240.589 270.096 241.104 269.195 241.361L269.839 238.013C270.74 237.756 273.316 236.726 272.929 238.657ZM273.316 234.021C272.929 235.824 270.869 236.21 270.225 236.339L270.869 233.249C271.513 233.12 273.702 232.219 273.316 234.021Z" fill="white"/>
<path fill-rule="evenodd" clip-rule="evenodd" d="M314.909 222.819C309.629 225.909 305.251 223.462 305.251 217.281C305.251 211.1 309.5 203.761 314.909 200.67C320.317 197.58 324.567 200.026 324.567 206.207C324.567 212.388 320.317 219.728 314.909 222.819ZM319.802 209.169L315.295 203.374L310.788 214.449L315.295 214.835L319.802 209.169ZM319.802 210.199L315.295 215.736L310.788 215.35L315.295 219.857L319.802 210.199Z" fill="white"/>
<path d="M315.295 203.374V209.426L319.802 209.169L315.295 203.374Z" fill="white" fill-opacity="0.5"/>
<path opacity="0.8" d="M315.295 203.374L310.788 214.449L315.295 209.555V203.374Z" fill="white"/>
<path d="M315.295 215.736V219.857L319.802 210.071L315.295 215.736Z" fill="white" fill-opacity="0.5"/>
<path opacity="0.796" d="M315.295 219.857V215.736L310.788 215.35L315.295 219.857Z" fill="white"/>
<path d="M310.788 214.448L315.295 214.835V209.555L310.788 214.448Z" fill="white" fill-opacity="0.5"/>
<path d="M359.077 200.284C353.411 203.504 348.775 200.928 348.775 194.49C348.775 188.051 353.411 180.067 359.077 176.848C364.743 173.629 369.379 176.204 369.379 182.643C369.379 189.081 364.743 197.065 359.077 200.284ZM361.009 181.613L356.373 184.317L355.987 187.021L360.236 184.574C362.296 183.415 362.94 183.93 362.94 185.347C362.94 186.12 362.683 187.536 362.554 187.922C362.296 189.21 361.524 190.755 359.077 192.172L354.956 194.49L354.57 197.194L359.206 194.49C360.88 193.588 361.524 192.944 362.296 192.043C363.97 190.24 364.872 187.794 365.258 185.218C365.773 181.355 365.129 179.166 361.009 181.613ZM358.948 188.437C359.077 187.665 359.206 187.279 359.206 187.279L354.441 189.983C353.282 190.627 353.025 191.657 352.896 192.301C352.767 193.073 352.639 193.46 352.639 193.46L357.403 190.755C358.691 190.111 358.819 189.081 358.948 188.437Z" fill="white"/>
<path d="M402.73 495.813C402.73 495.04 402.215 494.268 401.314 493.753L393.974 489.503L399.768 486.155C400.799 485.64 401.185 484.867 401.185 484.095V466.968C401.185 466.196 400.67 465.423 399.768 464.908L386.247 457.053C385.217 456.538 384.058 456.152 382.642 456.152C381.225 456.152 380.066 456.409 379.036 457.053L358.304 469.029L336.156 456.28C335.125 455.765 333.967 455.379 332.55 455.379C331.134 455.379 329.975 455.636 328.944 456.28L312.076 466.067C311.045 466.582 310.659 467.355 310.53 468.127V485.254C310.53 486.026 311.045 486.799 311.947 487.314L319.287 491.563L313.363 495.04C312.333 495.555 311.947 496.328 311.947 497.101V514.227C311.947 515 312.462 515.772 313.492 516.287L327.013 524.142C328.043 524.658 329.202 525.044 330.618 525.044C332.035 525.044 333.323 524.786 334.224 524.142L355.085 512.167L377.234 524.915C378.264 525.43 379.423 525.816 380.839 525.816C382.256 525.816 383.414 525.559 384.445 524.915L401.314 515.129C402.215 514.613 402.73 513.841 402.73 513.068V495.813Z" fill="#53A0FD"/>
<path opacity="0.25" d="M402.73 495.813C402.73 495.04 402.215 494.268 401.314 493.753L393.974 489.503L399.768 486.155C400.799 485.64 401.185 484.867 401.185 484.095V466.968C401.185 466.196 400.67 465.423 399.768 464.908L386.247 457.053C385.217 456.538 384.058 456.152 382.642 456.152C381.225 456.152 380.066 456.409 379.036 457.053L358.304 469.029L336.156 456.28C335.125 455.765 333.967 455.379 332.55 455.379C331.134 455.379 329.975 455.636 328.944 456.28L312.076 466.067C311.045 466.582 310.659 467.355 310.53 468.127V485.254C310.53 486.026 311.045 486.799 311.947 487.314L319.287 491.563L313.363 495.04C312.333 495.555 311.947 496.328 311.947 497.101V514.227C311.947 515 312.462 515.772 313.492 516.287L327.013 524.142C328.043 524.658 329.202 525.044 330.618 525.044C332.035 525.044 333.323 524.786 334.224 524.142L355.085 512.167L377.234 524.915C378.264 525.43 379.423 525.816 380.839 525.816C382.256 525.816 383.414 525.559 384.445 524.915L401.314 515.129C402.215 514.613 402.73 513.841 402.73 513.068V495.813Z" fill="black"/>
<path opacity="0.25" d="M375.816 490.533H395.647L393.973 489.503L399.768 486.155C400.798 485.64 401.184 484.868 401.184 484.095V466.968C401.184 466.196 400.669 465.423 399.768 464.908L396.42 462.977H375.816V490.533Z" fill="black"/>
<path opacity="0.25" d="M380.71 525.687C382.126 525.687 383.285 525.43 384.316 524.786L401.184 514.999C402.086 514.484 402.601 513.712 402.601 512.939V495.813C402.601 495.426 402.472 495.169 402.343 494.911H380.71V525.687Z" fill="black"/>
<path opacity="0.25" d="M311.947 465.938C310.916 466.453 310.53 467.226 310.401 467.998V485.125C310.401 485.897 310.916 486.67 311.818 487.185L319.158 491.435H339.246V464.521H314.264L311.947 465.938Z" fill="black"/>
<path opacity="0.25" d="M330.619 524.915C332.035 524.915 333.194 524.657 334.095 524.142L354.956 512.167V495.04H330.619V524.915Z" fill="black"/>
<path d="M379.035 480.875L401.184 493.624C402.214 494.139 402.6 494.911 402.6 495.684C402.6 496.457 402.085 497.229 401.184 497.744L384.315 507.531C383.285 508.046 382.126 508.432 380.709 508.432C379.293 508.432 378.134 508.175 377.104 507.531L354.955 494.783L334.094 506.758C333.064 507.273 331.905 507.66 330.489 507.66C329.072 507.66 327.913 507.402 326.883 506.758L313.362 498.903C312.332 498.388 311.817 497.616 311.817 496.843C311.817 496.07 312.332 495.298 313.233 494.783L334.094 482.807L311.946 470.059C310.916 469.544 310.529 468.771 310.529 467.998C310.529 467.226 311.044 466.453 312.075 465.938L328.944 456.151C329.974 455.636 331.133 455.25 332.549 455.25C333.966 455.25 335.253 455.508 336.155 456.151L358.303 468.9L379.035 456.924C380.065 456.409 381.224 456.023 382.641 456.023C384.057 456.023 385.216 456.28 386.246 456.924L399.767 464.779C400.798 465.294 401.184 466.067 401.184 466.839C401.184 467.612 400.669 468.385 399.639 468.9L379.035 480.875Z" fill="#53A0FD"/>
<path d="M495.058 430.011L500.853 426.663C501.883 426.148 502.398 425.375 502.398 424.602V407.476C502.398 406.703 501.883 405.931 500.982 405.416L487.461 397.561C486.431 397.045 485.272 396.659 483.855 396.659C482.439 396.659 481.28 396.917 480.25 397.561L459.518 409.536L420.5 432.071L414.577 435.548C413.546 436.063 413.16 436.836 413.16 437.608V454.735C413.16 455.507 413.675 456.28 414.577 456.795L428.098 464.65C429.128 465.165 430.287 465.552 431.703 465.552C433.12 465.552 434.407 465.294 435.309 464.65L456.17 452.674L495.058 430.011Z" fill="#53A0FD"/>
<path opacity="0.25" d="M495.058 430.011L500.853 426.663C501.883 426.148 502.398 425.375 502.398 424.602V407.476C502.398 406.703 501.883 405.931 500.982 405.416L487.461 397.561C486.431 397.045 485.272 396.659 483.855 396.659C482.439 396.659 481.28 396.917 480.25 397.561L459.518 409.536L420.5 432.071L414.577 435.548C413.546 436.063 413.16 436.836 413.16 437.608V454.735C413.16 455.507 413.675 456.28 414.577 456.795L428.098 464.65C429.128 465.165 430.287 465.552 431.703 465.552C433.12 465.552 434.407 465.294 435.309 464.65L456.17 452.674L495.058 430.011Z" fill="black"/>
<path opacity="0.25" d="M431.96 444.82V465.294C433.248 465.294 434.407 465.037 435.308 464.522L456.169 452.546L495.187 430.011L500.982 426.663C502.012 426.148 502.527 425.376 502.527 424.603V407.476C502.527 406.704 502.012 405.931 501.11 405.416L494.801 401.811L431.96 444.82Z" fill="black"/>
<path d="M480.249 421.383L456.041 435.29L435.18 447.266C434.15 447.781 432.991 448.167 431.574 448.167C430.158 448.167 428.999 447.91 427.969 447.266L414.448 439.411C413.417 438.896 412.902 438.123 412.902 437.351C412.902 436.578 413.417 435.805 414.319 435.29L435.18 423.315L459.389 409.407L480.121 397.432C481.151 396.917 482.31 396.53 483.726 396.53C485.143 396.53 486.302 396.788 487.332 397.432L500.853 405.287C501.883 405.802 502.269 406.574 502.269 407.347C502.269 408.12 501.754 408.892 500.724 409.407L480.249 421.383Z" fill="#53A0FD"/>
</svg>
